<?xml version="1.0" encoding="utf-8"?><svg viewBox="0 0 173 40" xmlns="http://www.w3.org/2000/svg" xmlns:xlink="http://www.w3.org/1999/xlink"><style>:root>svg{display:none}:root>svg:target{display:block}</style><svg fill="none" viewBox="0 0 12 7" id="icons--arrow-bottom" xmlns="http://www.w3.org/2000/svg"><path d="M11 1L6 6 1 1" stroke="#fff"/></svg><svg fill="none" viewBox="0 0 13 13" id="icons--exit" xmlns="http://www.w3.org/2000/svg"><path d="M5.12 9.093L6.14 10.11 9.75 6.5 6.139 2.889 5.12 3.907l1.863 1.87H0v1.445h6.984L5.12 9.092zM11.557 0H1.444C.643 0 0 .65 0 1.444v2.89h1.444v-2.89h10.112v10.112H1.444v-2.89H0v2.89C0 12.35.643 13 1.444 13h10.112C12.35 13 13 12.35 13 11.556V1.444C13 .65 12.35 0 11.556 0z" fill="#fff"/></svg><svg fill="none" viewBox="0 0 173 40" id="logo" xmlns="http://www.w3.org/2000/svg"><path d="M2.79 32.78l-2.5-3.645h1.806l1.698 2.607 1.711-2.607h1.793L4.79 32.78l2.635 3.807H5.633l-1.84-2.79-1.832 2.79H.168L2.79 32.78zM7.6 29.135h1.726l1.516 4.225c.229.602.382 1.168.458 1.698h.054c.04-.247.115-.546.222-.897.108-.354.679-2.03 1.712-5.026h1.711l-3.187 8.443c-.58 1.55-1.545 2.325-2.897 2.325-.35 0-.692-.039-1.024-.115v-1.253c.238.054.51.08.815.08.764 0 1.3-.442 1.61-1.327l.277-.7L7.6 29.134zM23.28 39.222h-1.475v-2.635h-5.107v2.635h-1.463v-3.861h.607c.53-.76.95-1.676 1.26-2.75.314-1.077.5-2.236.559-3.476h4.528v6.226h1.092v3.861zm-2.647-3.861v-5.013h-1.604a13.644 13.644 0 01-.54 2.735c-.269.899-.599 1.658-.99 2.278h3.134zM31.272 32.848c0 1.217-.312 2.167-.936 2.85-.625.683-1.494 1.024-2.608 1.024-.696 0-1.312-.157-1.846-.472a3.114 3.114 0 01-1.233-1.354c-.288-.589-.432-1.271-.432-2.048 0-1.209.31-2.152.93-2.83.62-.679 1.494-1.018 2.622-1.018 1.078 0 1.931.348 2.56 1.044.629.692.943 1.627.943 2.804zm-5.424 0c0 1.72.636 2.58 1.907 2.58 1.258 0 1.887-.86 1.887-2.58 0-1.703-.634-2.554-1.9-2.554-.665 0-1.148.22-1.45.66-.296.44-.444 1.072-.444 1.894zM36.77 32.753v-3.618h1.476v3.618l2.871-3.618h1.671l-2.931 3.605 3.194 3.847h-1.745l-3.06-3.78v3.78h-1.475v-3.78l-3.053 3.78H31.98l3.187-3.847-2.924-3.605h1.67l2.858 3.618zM47.458 36.722c-1.16 0-2.067-.337-2.722-1.01-.652-.679-.978-1.611-.978-2.797 0-1.217.304-2.174.91-2.87.607-.697 1.44-1.045 2.5-1.045.984 0 1.76.299 2.331.896.57.598.856 1.42.856 2.466v.856H45.39c.022.723.218 1.28.586 1.671.369.387.887.58 1.557.58.44 0 .849-.04 1.226-.122.382-.085.79-.224 1.227-.417v1.287a4.86 4.86 0 01-1.173.39 7.187 7.187 0 01-1.354.115zm-.29-6.523c-.503 0-.907.16-1.213.479-.3.319-.48.784-.539 1.395h3.383c-.01-.616-.158-1.08-.445-1.395-.288-.32-.683-.479-1.186-.479zM55.16 36.722c-1.128 0-1.986-.328-2.574-.984-.584-.66-.876-1.606-.876-2.837 0-1.253.305-2.216.916-2.89.615-.674 1.503-1.011 2.662-1.011.786 0 1.493.146 2.122.438l-.478 1.274c-.67-.261-1.222-.391-1.658-.391-1.29 0-1.934.855-1.934 2.567 0 .836.16 1.464.479 1.887.323.418.795.626 1.415.626a4.05 4.05 0 002.001-.525v1.381a3.124 3.124 0 01-.91.357 5.396 5.396 0 01-1.165.108zM64.586 29.135v1.24h-2.425v6.212h-1.59v-6.212h-2.426v-1.24h6.441zM72.49 31.042c0 .88-.514 1.413-1.543 1.597v.054c.575.067 1.016.249 1.321.545.305.297.458.68.458 1.153 0 .705-.27 1.248-.808 1.63-.535.378-1.314.566-2.339.566h-3.557v-7.452h3.544c1.95 0 2.924.635 2.924 1.907zm-1.388 3.254c0-.36-.139-.613-.417-.761-.279-.153-.697-.23-1.254-.23h-1.826v2.11h1.867c1.087 0 1.63-.373 1.63-1.119zm-.195-3.12c0-.296-.117-.51-.35-.64-.23-.134-.573-.202-1.031-.202h-1.92v1.793h1.684c.53 0 .932-.068 1.206-.203.274-.139.41-.388.41-.747zM77.618 36.722c-1.159 0-2.066-.337-2.722-1.01-.651-.679-.977-1.611-.977-2.797 0-1.217.303-2.174.91-2.87.606-.697 1.44-1.045 2.5-1.045.983 0 1.76.299 2.331.896.57.598.856 1.42.856 2.466v.856H75.55c.022.723.218 1.28.586 1.671.368.387.887.58 1.556.58.44 0 .85-.04 1.227-.122.382-.085.79-.224 1.226-.417v1.287a4.857 4.857 0 01-1.172.39 7.187 7.187 0 01-1.355.115zm-.29-6.523c-.503 0-.907.16-1.212.479-.301.319-.481.784-.54 1.395h3.383c-.009-.616-.157-1.08-.445-1.395-.287-.32-.682-.479-1.185-.479zM83.898 29.135v2.992h3.511v-2.992h1.584v7.452h-1.584v-3.214h-3.51v3.214h-1.584v-7.452h1.583zM92.847 29.135v2.992h3.51v-2.992h1.584v7.452h-1.584v-3.214h-3.51v3.214h-1.584v-7.452h1.584zM104.875 36.587l-.317-1.037h-.054c-.359.453-.721.763-1.085.93-.364.161-.831.242-1.401.242-.733 0-1.305-.198-1.719-.593-.409-.395-.613-.954-.613-1.678 0-.768.285-1.347.856-1.738.57-.391 1.44-.604 2.608-.64l1.287-.04v-.398c0-.477-.113-.831-.337-1.065-.22-.238-.564-.357-1.031-.357-.382 0-.748.056-1.099.168-.35.113-.687.245-1.01.398l-.512-1.132c.404-.211.846-.37 1.327-.478a5.993 5.993 0 011.361-.169c.948 0 1.662.207 2.143.62.485.413.728 1.062.728 1.947v5.02h-1.132zm-2.359-1.078c.575 0 1.036-.16 1.382-.478.35-.324.525-.775.525-1.355v-.647l-.957.04c-.745.028-1.289.154-1.63.378-.337.22-.506.56-.506 1.018 0 .332.099.59.297.775.197.18.494.27.889.27zM108.978 36.587h-1.772l2.075-3.052c-.503-.144-.898-.4-1.185-.768-.288-.373-.432-.834-.432-1.382 0-.705.252-1.255.755-1.65.503-.4 1.19-.6 2.062-.6h3.396v7.452h-1.59v-2.87h-1.503l-1.806 2.87zm.229-5.188c0 .382.144.67.432.862.292.189.682.283 1.172.283h1.476v-2.21h-1.725c-.432 0-.766.092-1.004.276-.234.185-.351.447-.351.789zM124.544 29.135v1.24h-3.235v6.212h-1.583v-7.452h4.818zM130.642 36.587l-.317-1.037h-.054c-.359.453-.721.763-1.085.93-.364.161-.831.242-1.401.242-.732 0-1.305-.198-1.718-.593-.409-.395-.614-.954-.614-1.678 0-.768.286-1.347.856-1.738.571-.391 1.44-.604 2.608-.64l1.287-.04v-.398c0-.477-.112-.831-.337-1.065-.22-.238-.564-.357-1.031-.357-.382 0-.748.056-1.098.168a8.247 8.247 0 00-1.011.398l-.512-1.132c.404-.211.847-.37 1.327-.478a6 6 0 011.361-.169c.948 0 1.662.207 2.143.62.485.413.728 1.062.728 1.947v5.02h-1.132zm-2.359-1.078c.575 0 1.036-.16 1.382-.478.35-.324.525-.775.525-1.355v-.647l-.956.04c-.746.028-1.29.154-1.631.378-.337.22-.506.56-.506 1.018 0 .332.099.59.297.775.198.18.494.27.889.27zM140.109 36.587h-1.597v-6.212h-2.055c-.126 1.599-.297 2.848-.512 3.746-.211.898-.49 1.554-.836 1.968-.341.413-.786.62-1.334.62-.346 0-.636-.05-.869-.149v-1.24c.166.063.332.095.498.095.459 0 .818-.514 1.079-1.543.265-1.033.471-2.612.62-4.737h5.006v7.452zM145.634 36.722c-1.159 0-2.066-.337-2.722-1.01-.651-.679-.977-1.611-.977-2.797 0-1.217.303-2.174.91-2.87.606-.697 1.44-1.045 2.5-1.045.984 0 1.761.299 2.331.896.571.598.856 1.42.856 2.466v.856h-4.966c.022.723.218 1.28.586 1.671.368.387.887.58 1.557.58.44 0 .849-.04 1.226-.122a6.584 6.584 0 001.226-.417v1.287a4.854 4.854 0 01-1.172.39 7.188 7.188 0 01-1.355.115zm-.289-6.523c-.503 0-.908.16-1.213.479-.301.319-.481.784-.539 1.395h3.382c-.009-.616-.157-1.08-.444-1.395-.288-.32-.683-.479-1.186-.479zM154.111 36.722c-.943 0-1.675-.34-2.196-1.017h-.095c.063.629.095 1.01.095 1.145v3.053h-1.584V29.135h1.28c.036.139.11.471.223.997h.081c.494-.755 1.235-1.132 2.223-1.132.93 0 1.653.337 2.17 1.01.521.675.782 1.62.782 2.838 0 1.217-.265 2.167-.796 2.85-.525.683-1.253 1.024-2.183 1.024zm-.384-6.428c-.629 0-1.089.184-1.381.552-.288.369-.431.957-.431 1.766v.236c0 .907.143 1.565.431 1.974.287.404.757.606 1.408.606.548 0 .97-.224 1.267-.673.296-.45.445-1.09.445-1.92 0-.837-.149-1.468-.445-1.894-.292-.432-.723-.647-1.294-.647zM162.184 36.722c-1.159 0-2.067-.337-2.723-1.01-.651-.679-.977-1.611-.977-2.797 0-1.217.304-2.174.91-2.87.606-.697 1.44-1.045 2.5-1.045.984 0 1.761.299 2.331.896.571.598.856 1.42.856 2.466v.856h-4.966c.022.723.218 1.28.586 1.671.369.387.887.58 1.557.58.44 0 .849-.04 1.226-.122a6.616 6.616 0 001.227-.417v1.287a4.876 4.876 0 01-1.173.39 7.184 7.184 0 01-1.354.115zm-.29-6.523c-.503 0-.907.16-1.213.479-.301.319-.481.784-.539 1.395h3.383c-.009-.616-.158-1.08-.445-1.395-.288-.32-.683-.479-1.186-.479zM167.642 36.587h-1.772l2.075-3.052c-.503-.144-.899-.4-1.186-.768-.288-.373-.431-.834-.431-1.382 0-.705.251-1.255.754-1.65.504-.4 1.191-.6 2.062-.6h3.396v7.452h-1.59v-2.87h-1.502l-1.806 2.87zm.229-5.188c0 .382.144.67.431.862.292.189.683.283 1.173.283h1.475v-2.21h-1.725c-.431 0-.766.092-1.004.276-.233.185-.35.447-.35.789zM0 21.599h11.661c4.6 0 6.953-2.083 6.953-6.048v-.062c0-2.946-1.497-4.736-4.38-5.245v-.278c2.416-.462 3.679-2.036 3.679-4.597v-.077C17.913 1.805 15.714 0 11.412 0H0v21.599zM4.599 8.84V3.055h5.44c2.199 0 3.29.956 3.29 2.838v.062c0 1.913-1.091 2.885-3.29 2.885H4.6zm0 9.689v-6.881h5.581c2.417 0 3.617 1.142 3.617 3.379v.061c0 2.284-1.2 3.44-3.617 3.44H4.6zM22.946 0v21.599h4.537V0h-4.537zM36.975 22c3.664 0 6.33-1.62 7.312-4.366l.312.077c-.593 2.993.03 4.289 3.616 4.289.452 0 .904-.046 1.279-.108l.53-2.669-.78-.015c-.857-.016-1.107-.216-1.107-1.312v-7.42c0-3.672-2.463-5.431-7.717-5.431-5.58 0-8.402 2.175-8.169 5.94l4.475.37c-.187-2.484 1.091-3.61 3.6-3.61 2.246 0 3.306.817 3.306 2.684v.91l-4.427.803c-4.428.817-7.359 2.206-7.359 5.6v.046c0 2.685 1.84 4.212 5.13 4.212zm1.808-2.993c-1.527 0-2.354-.54-2.354-1.65v-.032c0-1.589 1.45-2.237 4.319-2.792l2.884-.555v.755c0 2.484-2.26 4.274-4.849 4.274zM53.841 21.599h4.537V14.07c0-3.64 1.73-5.893 4.599-5.893 2.136 0 3.196 1.095 3.196 3.193V21.6h4.537V10.29c0-3.394-2.012-5.183-5.753-5.183-3.399 0-5.722 1.48-7.093 4.566l-.312-.139c.623-1.836.842-2.93.842-4.134H53.84v16.199zM84.208 21.985c5.348 0 8.34-2.13 8.793-6.249l-4.584-.509c-.186 2.592-1.62 3.903-4.193 3.903-2.884 0-4.38-1.79-4.38-5.322v-.756c0-3.456 1.511-5.2 4.333-5.2 2.604 0 3.96 1.436 4.163 4.305l4.52-.509c-.358-4.366-3.242-6.634-8.667-6.634-5.893 0-8.996 2.854-8.996 8.316v.2c0 5.554 3.072 8.455 9.011 8.455zM97.52 21.599h4.537V14.07c0-3.64 1.715-5.878 4.599-5.878 2.135 0 3.196 1.08 3.196 3.178V21.6h4.536V10.29c0-3.394-2.026-5.183-5.752-5.183-3.43 0-5.737 1.48-7.094 4.55l-.327-.123c.608-1.728.826-3.008.842-4.535V0H97.52v21.599zM123.803 22c3.663 0 6.329-1.62 7.311-4.366l.312.077c-.593 2.993.031 4.289 3.617 4.289.452 0 .904-.046 1.278-.108l.53-2.669-.779-.015c-.858-.016-1.107-.216-1.107-1.312v-7.42c0-3.672-2.463-5.431-7.717-5.431-5.581 0-8.403 2.175-8.169 5.94l4.474.37c-.187-2.484 1.091-3.61 3.601-3.61 2.245 0 3.305.817 3.305 2.684v.91l-4.427.803c-4.428.817-7.359 2.206-7.359 5.6v.046c0 2.685 1.84 4.212 5.13 4.212zm1.808-2.993c-1.528 0-2.354-.54-2.354-1.65v-.032c0-1.589 1.45-2.237 4.318-2.792l2.884-.555v.755c0 2.484-2.26 4.274-4.848 4.274zM140.669 21.599h4.536v-6.773c0-4.227 1.325-5.785 4.786-6.032l2.23-.17-.53-3.733c-3.664.277-5.363 1.419-7.047 4.782l-.296-.139c.733-2.16.904-3.023.873-4.134h-4.552v16.199zM162.243 21.892c3.367 0 5.566-1.543 6.672-4.335l.328.108c-.53 1.697-.811 3.04-.826 3.934H173V0h-4.537v4.397c0 1.697.234 3.07.795 4.937l-.311.123c-1.107-2.777-3.321-4.381-6.704-4.381-4.677 0-7.14 2.823-7.14 8.223v.385c0 5.385 2.463 8.208 7.14 8.208zm1.715-2.777c-2.806 0-4.272-1.774-4.272-5.276v-.71c0-3.518 1.466-5.307 4.272-5.307 2.931 0 4.505 1.882 4.505 5.384v.556c0 3.486-1.574 5.353-4.505 5.353z" fill="#fff"/></svg><svg fill="none" viewBox="0 0 33 32" id="social--facebook" xmlns="http://www.w3.org/2000/svg"><g clip-path="url(#dclip0_20_50)"><path d="M21.65 5.313h2.901V.225C24.051.156 22.33 0 20.325 0c-4.183 0-7.048 2.65-7.048 7.519V12H8.66v5.688h4.616V32h5.659V17.69h4.429L24.068 12h-5.133V8.083c0-1.644.44-2.77 2.715-2.77z" fill="#fff"/></g><defs><clipPath id="dclip0_20_50"><path fill="#fff" transform="translate(.469)" d="M0 0h31.778v32H0z"/></clipPath></defs></svg><svg fill="none" viewBox="0 0 33 32" id="social--instagram" xmlns="http://www.w3.org/2000/svg"><g clip-path="url(#eclip0_20_42)" fill="#fff"><path d="M16.449 7.784c-4.506 0-8.154 3.677-8.154 8.21 0 4.538 3.652 8.211 8.154 8.211 4.505 0 8.153-3.677 8.153-8.21 0-4.538-3.651-8.211-8.153-8.211zm0 13.54c-2.925 0-5.293-2.385-5.293-5.33 0-2.943 2.369-5.329 5.293-5.329 2.923 0 5.292 2.386 5.292 5.33.001 2.944-2.367 5.329-5.292 5.329z"/><path d="M22.995.101c-2.924-.137-10.165-.13-13.091 0-2.572.122-4.84.747-6.669 2.588C.18 5.767.57 9.913.57 15.995c0 6.224-.344 10.274 2.665 13.305 3.068 3.088 7.246 2.684 13.214 2.684 6.122 0 8.235.004 10.4-.84 2.944-1.15 5.166-3.8 5.383-8.559.138-2.945.13-10.236 0-13.182C31.97 3.785 28.976.379 22.995.1zm4.628 27.163C25.619 29.28 22.84 29.1 16.41 29.1c-6.62 0-9.275.099-11.212-1.857-2.231-2.236-1.827-5.827-1.827-11.27C3.37 8.606 2.62 3.3 9.96 2.922c1.688-.06 2.184-.08 6.43-.08l.06.04c7.056 0 12.592-.744 12.925 6.648.075 1.686.092 2.193.092 6.462 0 6.59.124 9.279-1.845 11.27z"/><path d="M24.925 9.379a1.912 1.912 0 001.906-1.92c0-1.059-.853-1.918-1.905-1.918A1.912 1.912 0 0023.02 7.46c0 1.06.853 1.919 1.905 1.919z"/></g><defs><clipPath id="eclip0_20_42"><path fill="#fff" transform="translate(.554)" d="M0 0h31.778v32H0z"/></clipPath></defs></svg><svg fill="none" viewBox="0 0 49 29" id="social--mc" xmlns="http://www.w3.org/2000/svg"><g clip-path="url(#fclip0_19_94)" fill="#fff"><path d="M33.933 0a14.433 14.433 0 00-9.721 3.748A14.442 14.442 0 0014.495.003h-.093C6.444.055 0 6.529 0 14.498c0 8.001 6.494 14.494 14.494 14.494 3.737 0 7.145-1.417 9.716-3.745a14.336 14.336 0 01-1.482-1.584h2.993a14.492 14.492 0 01-1.472 1.553h-.002c-.012.013-.025.021-.037.032a14.44 14.44 0 009.728 3.749c8.005-.003 14.492-6.495 14.49-14.499v-.007C48.429 6.487 41.938-.002 33.933 0zM22.894 5.245h2.755c.406.492.783 1.01 1.125 1.552h-4.915a21.68 21.68 0 011.035-1.552zm-1.891 3.074h6.607c.235.502.443 1.021.625 1.553H20.22c.08-.15.36-.754.783-1.553zM5.917 18.19l.879-5.542-1.983 5.542H3.75l-.138-5.542-.939 5.542H1.184l1.234-7.35H4.67l.079 4.51 1.521-4.51h2.443l-1.217 7.35H5.917zm5.265-.012l.051-.587c-.024.003-.494.709-1.583.709-.57 0-1.49-.311-1.49-1.663 0-1.719 1.402-2.289 2.737-2.289.21 0 .663.038.663.038s.051-.105.051-.389c0-.467-.42-.531-.995-.531-1.013 0-1.682.271-1.682.271l.224-1.33s.812-.34 1.869-.34c.547 0 2.12.058 2.12 1.861l-.606 4.25h-1.359zm5.743-1.872c0 2.051-1.987 1.963-2.334 1.963-1.295 0-1.695-.179-1.732-.189l.206-1.35c.002-.012.65.235 1.371.235.416 0 .956-.041.956-.538 0-.744-1.932-.566-1.932-2.333 0-1.559 1.158-2.015 2.3-2.015.882 0 1.424.121 1.424.121l-.195 1.362s-.837-.069-1.054-.069c-.549 0-.848.12-.848.504-.001.772 1.838.394 1.838 2.309zm2.386.538c.137 0 .292-.047.398-.047l-.193 1.311c-.155.043-.594.199-1.157.203-.719.006-1.23-.396-1.23-1.308 0-.612.877-5.655.911-5.688h1.543l-.157.902h.77l-.197 1.453h-.817l-.434 2.677c-.033.213.026.497.563.497zm3.394-4.797c1.694 0 2.201 1.24 2.201 2.257 0 .407-.204 1.407-.204 1.407h-3.136s-.29 1.235 1.367 1.235c.777 0 1.639-.38 1.639-.38l-.272 1.487s-.498.254-1.63.254c-1.227 0-2.666-.519-2.666-2.699.001-1.889 1.149-3.561 2.701-3.561zm4.087 10.123H21.65c-.313-.5-.605-1.013-.856-1.552h6.843a14.886 14.886 0 01-.845 1.552zm-.345-3.969h-1.584l.963-5.982h1.437l-.138.867s.512-.943 1.203-.943c.201 0 .298.02.298.02-.205.418-.386.801-.574 1.79-1.072-.38-1.154 1.693-1.605 4.248zm6.035-.093s-.83.212-1.35.212c-1.842 0-2.777-1.271-2.777-3.196 0-2.903 1.733-4.449 3.514-4.449.805 0 1.738.378 1.738.378l-.252 1.635s-.631-.441-1.416-.441c-1.05 0-1.992 1.002-1.992 2.823 0 .897.439 1.733 1.535 1.733.521 0 1.276-.379 1.276-.379l-.276 1.684zm3.715.073l.052-.591c-.025.003-.495.709-1.583.709-.57 0-1.49-.311-1.49-1.663 0-1.719 1.402-2.289 2.736-2.289.21 0 .664.038.664.038s.052-.104.052-.388c0-.467-.42-.531-.996-.531-1.013 0-1.681.271-1.681.271l.224-1.33s.812-.34 1.87-.34c.546 0 2.12.058 2.119 1.861l-.606 4.25c-.001.003-1.361.003-1.361.003zm3.207.02H37.82l.963-5.982h1.438l-.138.867s.513-.943 1.204-.943c.201 0 .297.02.297.02-.204.418-.387.801-.574 1.79-1.073-.38-1.155 1.693-1.606 4.248zm4.729-.016l.067-.551s-.512.646-1.438.646c-1.283 0-1.912-1.239-1.912-2.505 0-1.958 1.178-3.665 2.592-3.665.91.002 1.491.805 1.491.805l.334-2.065 1.547-.003-1.18 7.338h-1.501zm3.052-.207a.461.461 0 01-.406.237.471.471 0 01-.404-.237.464.464 0 010-.466.475.475 0 01.404-.236c.08 0 .156.021.23.062a.461.461 0 01.176.64zM47.061 22.4c-.01-.006-.019-.017-.035-.023a.245.245 0 00-.08-.01h-.094v.15h.1c.047 0 .078-.003.096-.02a.066.066 0 00.025-.055.075.075 0 00-.012-.041z"/><path d="M11.022 15.495c-1.13 0-1.36.508-1.36.93 0 .219.125.583.604.583.93 0 1.122-1.218 1.092-1.477-.044-.01-.072-.035-.336-.036zM22.711 13.428c-.841 0-1.003.957-1.003 1.058h1.713c0-.077.161-1.058-.71-1.058zM43.709 13.595c-.68 0-1.216.788-1.215 1.985 0 .73.26 1.198.816 1.198.836 0 1.239-1.091 1.239-1.904 0-.897-.285-1.279-.84-1.279zM47.115 17.552a.377.377 0 00-.146-.145.381.381 0 00-.528.145.403.403 0 00-.053.195c0 .067.018.133.05.194a.409.409 0 00.34.2c.067 0 .133-.02.193-.054a.388.388 0 00.144-.535zm-.217.452l-.045-.078a.404.404 0 00-.084-.118.102.102 0 00-.066-.019h-.046v.214h-.084v-.504h.175c.059 0 .103.005.128.016a.143.143 0 01.064.048.116.116 0 01.023.074.136.136 0 01-.04.096c-.026.029-.062.041-.104.046.02.008.033.017.043.026a.51.51 0 01.074.099l.062.1h-.1zM36.039 15.495c-1.131 0-1.36.508-1.36.93 0 .219.124.583.604.583.929 0 1.121-1.218 1.092-1.477-.045-.01-.073-.035-.336-.036z"/><path d="M46.864 17.602a.091.091 0 00-.034-.025.283.283 0 00-.082-.01h-.091v.153h.099c.047 0 .078-.006.097-.021a.078.078 0 00.024-.056.067.067 0 00-.013-.041z"/></g><defs><clipPath id="fclip0_19_94"><path fill="#fff" d="M0 0h49v29H0z"/></clipPath></defs></svg><svg fill="none" viewBox="0 0 33 32" id="social--telegram" xmlns="http://www.w3.org/2000/svg"><g clip-path="url(#gclip0_20_46)"><path d="M13.328 20.241l-.526 7.446c.753 0 1.078-.326 1.469-.716l3.526-3.393 7.306 5.387c1.34.753 2.284.357 2.646-1.24l4.796-22.63.001-.002c.425-1.994-.716-2.774-2.022-2.285L2.334 13.676c-1.924.752-1.895 1.832-.327 2.322l7.207 2.257 16.74-10.548c.788-.526 1.505-.235.916.29L13.328 20.241z" fill="#fff"/></g><defs><clipPath id="gclip0_20_46"><path fill="#fff" transform="translate(.86)" d="M0 0h31.778v32H0z"/></clipPath></defs></svg><svg fill="none" viewBox="0 0 93 29" id="social--visa" xmlns="http://www.w3.org/2000/svg"><path d="M37.109.474l-4.71 27.58h7.533L44.646.475h-7.537zM26.083.505l-7.378 18.81-.787-2.84C16.463 13.051 12.332 8.137 7.483 5.04l6.746 23.001 7.971-.013L34.063.499l-7.98.006z" fill="#fff"/><path d="M15.058 2.479C14.62.799 13.351.298 11.776.238H.096L0 .787c9.089 2.2 15.103 7.501 17.598 13.875L15.058 2.48zM59.913 5.761c2.465-.038 4.251.5 5.638 1.056l.68.319 1.02-5.978C65.759.6 63.42 0 60.502 0c-7.444 0-12.69 3.741-12.731 9.102-.049 3.961 3.737 6.173 6.597 7.494 2.935 1.353 3.92 2.213 3.906 3.422-.023 1.846-2.34 2.693-4.505 2.693-3.016 0-4.619-.416-7.093-1.444l-.97-.441-1.06 6.173c1.763.771 5.016 1.434 8.393 1.47 7.919 0 13.065-3.697 13.119-9.426.033-3.134-1.976-5.525-6.33-7.487-2.635-1.28-4.247-2.131-4.232-3.422 0-1.147 1.368-2.373 4.317-2.373zM86.583.505h-5.82c-1.808 0-3.153.49-3.947 2.289L65.631 28.07h7.91s1.291-3.399 1.584-4.143c.866 0 8.552.012 9.647.012.224.962.918 4.131.918 4.131h6.988L86.583.505zm-9.29 17.777c.62-1.584 3-7.709 3-7.709-.04.076.615-1.595 1.004-2.633l.508 2.378 1.746 7.964h-6.258z" fill="#fff"/></svg><svg fill="none" viewBox="0 0 32 32" id="social--youtube" xmlns="http://www.w3.org/2000/svg"><g clip-path="url(#iclip0_20_48)"><path d="M31.24 7.905l.039.262c-.384-1.372-1.42-2.43-2.738-2.816l-.028-.007c-2.478-.677-12.447-.677-12.447-.677s-9.944-.014-12.446.677A4.045 4.045 0 00.862 8.14l-.007.028c-.925 4.868-.932 10.717.041 15.93l-.04-.265c.383 1.372 1.42 2.43 2.737 2.816l.028.007c2.475.678 12.447.678 12.447.678s9.942 0 12.446-.678a4.044 4.044 0 002.76-2.795l.006-.028c.421-2.264.662-4.87.662-7.53l-.001-.295.001-.307a43.3 43.3 0 00-.703-7.795zM12.885 20.868v-9.724l8.297 4.87-8.297 4.854z" fill="#fff"/></g><defs><clipPath id="iclip0_20_48"><path fill="#fff" transform="translate(.164)" d="M0 0h31.778v32H0z"/></clipPath></defs></svg></svg>